<svg xmlns="http://www.w3.org/2000/svg" version="1.1" xmlns:xlink="http://www.w3.org/1999/xlink" xmlns:svgjs="http://svgjs.dev/svgjs" width="1440" height="560" preserveAspectRatio="none" viewBox="0 0 1440 560"><g mask="url(&quot;#SvgjsMask1000&quot;)" fill="none"><rect width="1440" height="560" x="0" y="0" fill="#0e2a47"></rect><path d="M0 15.39L10 61.48L20 61.22L30 127.25L40 68.43L50 50.58L60 9.12L70 57.16L80 48.22L90 64.63L100 46.88L110 71.13L120 106.71L130 114.42L140 123.06L150 141.95L160 187.56L170 240.28L180 190.71L190 233.97L200 255.86L210 283.32L220 334.4L230 360.35L240 354.28L250 394.9L260 359.84L270 319.08L280 252.78L290 283.25L300 286.74L310 255.89L320 193.23L330 213.15L340 250.08L350 204.08L360 219.63L370 200.15L380 211.01L390 160.62L400 108.76L410 66.17L420 114.66L430 142.01L440 75.19L450 27.91L460 60.84L470 79.67L480 9.9L490 42.32L500 44L510 11.73L520 69.57L530 8.55L540 38.15L550 68.62L560 46.16L570 49.47L580 42.52L590 62.41L600 56.87L610 18.82L620 40.95L630 76.75L640 38.42L650 53.41L660 47.33L670 17.88L680 68.95L690 127L700 148.48L710 165.23L720 167L730 183.22L740 251.99L750 282.27L760 241.25L770 225.46L780 168.25L790 122.14L800 129.17L810 117.57L820 143.46L830 206.52L840 218.29L850 281.27L860 248.04L870 300.18L880 317.41L890 319.88L900 310.58L910 319.96L920 352.59L930 359.59L940 328.75L950 284.25L960 319.73L970 311.45L980 242.35L990 258.04L1000 274.76L1010 268.67L1020 321.19L1030 316.43L1040 363.36L1050 360.77L1060 304.48L1070 286.3L1080 246.74L1090 309.3L1100 301.18L1110 264.44L1120 239.02L1130 264.29L1140 314.2L1150 285.94L1160 216.33L1170 167.21L1180 101.44L1190 88.12L1200 133.55L1210 174.51L1220 190.22L1230 199.6L1240 133.25L1250 202.42L1260 263.13L1270 222.82L1280 264.4L1290 255.12L1300 297.65L1310 349.07L1320 323.09L1330 360.14L1340 357.53L1350 367.27L1360 301.48L1370 315.41L1380 340.1L1390 372.43L1400 307.74L1410 332.9L1420 330.18L1430 312.16L1440 305.81" stroke="#224b75" stroke-width="2"></path><path d="M0 15.39L10 61.48L20 61.22L30 127.25L40 68.43L50 50.58L60 9.12L70 57.16L80 48.22L90 64.63L100 46.88L110 71.13L120 106.71L130 114.42L140 123.06L150 141.95L160 187.56L170 240.28L180 190.71L190 233.97L200 255.86L210 283.32L220 334.4L230 360.35L240 354.28L250 394.9L260 359.84L270 319.08L280 252.78L290 283.25L300 286.74L310 255.89L320 193.23L330 213.15L340 250.08L350 204.08L360 219.63L370 200.15L380 211.01L390 160.62L400 108.76L410 66.17L420 114.66L430 142.01L440 75.19L450 27.91L460 60.84L470 79.67L480 9.9L490 42.32L500 44L510 11.73L520 69.57L530 8.55L540 38.15L550 68.62L560 46.16L570 49.47L580 42.52L590 62.41L600 56.87L610 18.82L620 40.95L630 76.75L640 38.42L650 53.41L660 47.33L670 17.88L680 68.95L690 127L700 148.48L710 165.23L720 167L730 183.22L740 251.99L750 282.27L760 241.25L770 225.46L780 168.25L790 122.14L800 129.17L810 117.57L820 143.46L830 206.52L840 218.29L850 281.27L860 248.04L870 300.18L880 317.41L890 319.88L900 310.58L910 319.96L920 352.59L930 359.59L940 328.75L950 284.25L960 319.73L970 311.45L980 242.35L990 258.04L1000 274.76L1010 268.67L1020 321.19L1030 316.43L1040 363.36L1050 360.77L1060 304.48L1070 286.3L1080 246.74L1090 309.3L1100 301.18L1110 264.44L1120 239.02L1130 264.29L1140 314.2L1150 285.94L1160 216.33L1170 167.21L1180 101.44L1190 88.12L1200 133.55L1210 174.51L1220 190.22L1230 199.6L1240 133.25L1250 202.42L1260 263.13L1270 222.82L1280 264.4L1290 255.12L1300 297.65L1310 349.07L1320 323.09L1330 360.14L1340 357.53L1350 367.27L1360 301.48L1370 315.41L1380 340.1L1390 372.43L1400 307.74L1410 332.9L1420 330.18L1430 312.16L1440 305.81L1440 560L0 560z" fill="url(&quot;#SvgjsLinearGradient1001&quot;)"></path></g><defs><mask id="SvgjsMask1000"><rect width="1440" height="560" fill="#ffffff"></rect></mask><linearGradient x1="50%" y1="0%" x2="50%" y2="100%" id="SvgjsLinearGradient1001"><stop stop-opacity="0.65" stop-color="#224b75" offset="0"></stop><stop stop-opacity="0" stop-color="#508dcc" offset="0.8"></stop></linearGradient></defs></svg>