<svg xmlns="http://www.w3.org/2000/svg" version="1.1" xmlns:xlink="http://www.w3.org/1999/xlink" xmlns:svgjs="http://svgjs.dev/svgjs" width="1440" height="560" preserveAspectRatio="none" viewBox="0 0 1440 560"><g mask="url(&quot;#SvgjsMask1940&quot;)" fill="none"><rect width="1440" height="560" x="0" y="0" fill="url(&quot;#SvgjsLinearGradient1941&quot;)"></rect><path d="M1440 0L1094.81 0L1440 78.14z" fill="rgba(255, 255, 255, .1)"></path><path d="M1094.81 0L1440 78.14L1440 300.66L584 0z" fill="rgba(255, 255, 255, .075)"></path><path d="M584 0L1440 300.66L1440 366.06000000000006L522.86 0z" fill="rgba(255, 255, 255, .05)"></path><path d="M522.86 0L1440 366.06000000000006L1440 420.43000000000006L265.73 0z" fill="rgba(255, 255, 255, .025)"></path><path d="M0 560L693.05 560L0 488.65z" fill="rgba(0, 0, 0, .1)"></path><path d="M0 488.65L693.05 560L837.4699999999999 560L0 375.7z" fill="rgba(0, 0, 0, .075)"></path><path d="M0 375.7L837.4699999999999 560L936.3899999999999 560L0 274.46999999999997z" fill="rgba(0, 0, 0, .05)"></path><path d="M0 274.46999999999997L936.3899999999999 560L967.9199999999998 560L0 111.12999999999997z" fill="rgba(0, 0, 0, .025)"></path></g><defs><mask id="SvgjsMask1940"><rect width="1440" height="560" fill="#ffffff"></rect></mask><linearGradient x1="84.72%" y1="139.29%" x2="15.28%" y2="-39.29%" gradientUnits="userSpaceOnUse" id="SvgjsLinearGradient1941"><stop stop-color="#0e2a47" offset="0"></stop><stop stop-color="rgba(0, 16, 36, 1)" offset="1"></stop></linearGradient></defs></svg>